<svg width="102" height="28" viewBox="0 0 102 28" fill="none" xmlns="http://www.w3.org/2000/svg">
<g id="INSEP">
<path d="M4.82073 27.5858H0.0644531V0.373791H4.82073V27.5858Z" fill="#FEAC39"/>
<path d="M31.9704 27.5858H27.1771L15.2956 8.41031V27.5858H10.5209V0.373791H15.2956L27.2141 19.5867V0.373791H31.9704V27.5858Z" fill="#FEAC39"/>
<path d="M51.5507 20.5585C51.5507 19.8234 51.3964 19.2004 51.088 18.6896C50.7919 18.1663 50.2305 17.6866 49.4039 17.2505C48.5772 16.8019 47.3866 16.3347 45.832 15.8488C44.5612 15.4625 43.3829 15.0202 42.2972 14.5218C41.2238 14.0234 40.2861 13.4503 39.4842 12.8024C38.6822 12.142 38.053 11.3819 37.5965 10.5222C37.1523 9.65005 36.9302 8.64704 36.9302 7.51321C36.9302 6.0305 37.3374 4.72846 38.1517 3.60709C38.966 2.47325 40.0949 1.58861 41.5384 0.953168C42.982 0.317723 44.6538 0 46.5538 0C48.5772 0 50.3169 0.373791 51.7727 1.12137C53.2286 1.8565 54.3452 2.85327 55.1225 4.11171C55.9121 5.37014 56.3069 6.77185 56.3069 8.31686H51.5322C51.5322 7.45714 51.3471 6.69087 50.9769 6.01804C50.6191 5.33276 50.0701 4.80322 49.3298 4.42943C48.5896 4.04318 47.6457 3.85005 46.4983 3.85005C45.4249 3.85005 44.5304 4.01203 43.8148 4.33598C43.0992 4.65993 42.5686 5.09602 42.2232 5.64425C41.8777 6.19248 41.705 6.81546 41.705 7.51321C41.705 8.17357 41.9147 8.75918 42.3342 9.27003C42.7537 9.78087 43.3891 10.2481 44.2404 10.6717C45.0917 11.0829 46.1528 11.4816 47.4236 11.8679C49.4224 12.4535 51.0818 13.1388 52.402 13.9237C53.7221 14.7087 54.703 15.6369 55.3446 16.7085C55.9985 17.78 56.3254 19.0509 56.3254 20.5211C56.3254 22.0537 55.9306 23.3807 55.141 24.502C54.3514 25.6109 53.2348 26.4644 51.7912 27.0625C50.3477 27.6606 48.6512 27.9596 46.7018 27.9596C45.4064 27.9596 44.1294 27.7852 42.8709 27.4363C41.6125 27.075 40.4712 26.5392 39.4471 25.829C38.4354 25.1063 37.6211 24.203 37.0042 23.119C36.3997 22.035 36.0974 20.7579 36.0974 19.2876H40.8722C40.8722 20.1598 41.0202 20.9012 41.3163 21.5117C41.6125 22.1222 42.0258 22.6268 42.5563 23.0255C43.0868 23.4118 43.7037 23.6921 44.407 23.8666C45.1226 24.041 45.8875 24.1282 46.7018 24.1282C47.7752 24.1282 48.6697 23.9787 49.3854 23.6797C50.101 23.3682 50.6377 22.9446 50.9955 22.4088C51.3656 21.873 51.5507 21.2563 51.5507 20.5585Z" fill="#FEAC39"/>
<path d="M78.0896 27.5858H63.8577V23.7171H78.0896V27.5858ZM65.1902 27.5858H60.4155V0.373791H65.1902V27.5858ZM76.2204 15.475H63.8577V11.6623H76.2204V15.475ZM77.997 4.26122H63.8577V0.373791H77.997V4.26122Z" fill="#FEAC39"/>
<path d="M85.1777 17.5495V13.6621H92.1363C93.3454 13.6621 94.3139 13.4689 95.0419 13.0827C95.7822 12.6964 96.325 12.1607 96.6705 11.4754C97.016 10.7901 97.1887 10.0051 97.1887 9.12051C97.1887 8.27325 97.016 7.48206 96.6705 6.74693C96.325 6.01181 95.7822 5.41375 95.0419 4.95274C94.3139 4.49173 93.3454 4.26122 92.1363 4.26122H86.6212V27.5858H81.8465V0.373791H92.1363C94.2337 0.373791 96.0166 0.747583 97.4848 1.49517C98.953 2.24275 100.07 3.27067 100.835 4.57894C101.612 5.88721 102 7.38861 102 9.08313C102 10.84 101.612 12.3538 100.835 13.6247C100.07 14.8831 98.953 15.855 97.4848 16.5403C96.0166 17.2131 94.2337 17.5495 92.1363 17.5495H85.1777Z" fill="#FEAC39"/>
</g>
</svg>
