<svg width="52" height="46" viewBox="0 0 52 46" fill="none" xmlns="http://www.w3.org/2000/svg">
<g id="Frame" clip-path="url(#clip0_958_1418)">
<g id="Group">
<path id="Vector" d="M45.2099 12.5991C44.9776 12.6885 44.7453 12.7778 44.3343 12.9565C47.1219 14.0288 49.4807 15.4585 51.4642 17.4422C50.8209 18.3178 50.0703 18.3357 49.2305 17.4958C48.6765 16.9418 48.1226 16.6022 47.4971 17.2098C48.1226 18.0498 48.8016 18.8003 49.302 19.6582C49.9095 20.6947 49.6593 22.1065 48.8195 22.9643C48.6765 23.1251 48.3549 23.2324 48.1404 23.1787C46.4786 22.8035 45.0133 23.2681 43.6374 24.1438C42.5473 24.8408 41.5109 24.6442 40.2064 24.0902C41.2786 23.554 42.1721 23.1073 43.0655 22.6605C43.0477 22.6247 43.0477 22.589 43.0298 22.5533C42.2435 22.7498 41.4573 22.9643 40.671 23.1609C40.6353 23.0894 40.5996 23.0358 40.5638 22.9643C41.3679 22.3031 42.1899 21.6418 43.137 20.8555C42.4937 21.0164 41.9576 21.1593 41.4215 21.3023C41.3679 21.2308 41.3143 21.1772 41.2429 21.1057C42.0112 20.3551 42.7618 19.6045 43.5123 18.854C41.9934 19.122 40.8676 20.0334 40.0099 21.3023C39.3308 22.3209 38.7411 23.3753 38.08 24.394C36.7398 26.4491 34.8635 27.861 32.6119 28.8081C30.6463 29.6302 28.5734 30.1127 26.3755 30.2199C28.216 28.7009 30.0566 27.1819 32.0044 25.5735C31.7006 25.4305 31.4683 25.3054 31.2538 25.216C30.4319 24.8944 29.5741 24.6084 28.77 24.2331C26.4827 23.1609 25.6429 21.5704 25.9645 18.9076C26.6435 19.265 27.269 19.5867 28.0195 19.9798C28.0016 17.9425 28.5913 16.1733 29.6456 14.547C29.8243 14.279 29.7707 13.8501 29.7886 13.5105C29.9851 10.115 31.7185 8.50664 35.0958 8.56026C37.0257 8.57813 38.7769 9.09639 40.2779 10.3652C40.6532 10.6869 41.225 10.812 41.7075 10.9371C42.5116 11.1516 43.3514 11.2409 44.1198 11.509C44.5487 11.6519 44.9061 12.0272 45.2813 12.3132C45.2992 12.4204 45.2456 12.5098 45.2099 12.5991ZM40.9212 12.9029C40.8319 13.3497 40.4566 13.171 39.9563 13.028C39.5453 12.9029 39.0628 13.0459 38.616 13.0638C38.759 13.439 38.9198 13.8322 39.0628 14.2075C39.0807 14.2432 39.027 14.2969 38.9556 14.5292C38.4195 14.136 37.937 13.7607 37.4188 13.3676C37.3831 13.3854 37.258 13.4033 37.1686 13.4748C36.9006 13.6892 36.6683 13.9216 36.4181 14.1539C36.6504 14.4041 36.847 14.7079 37.1329 14.8687C38.2051 15.5121 39.3844 15.6908 40.5638 15.2976C41.5645 14.9581 42.3329 15.2619 43.137 15.8159C43.6731 16.1912 44.3343 16.4056 45.1384 16.7988C43.6016 15.3691 42.2793 14.136 40.9212 12.9029Z" fill="#FEAC39"/>
<path id="Vector_2" d="M20.8718 21.7312C21.9975 24.7157 21.5508 27.4857 19.9247 30.1842C20.8539 29.6123 21.801 29.0583 22.8731 28.415C22.8017 29.791 22.2298 30.7203 21.4257 31.4709C18.5309 34.1873 15.0285 35.3132 10.7934 35.2596C11.7584 34.1694 12.5625 33.258 13.4024 32.3287C12.2944 32.6325 11.258 33.0257 10.1859 33.2044C9.32813 33.3474 8.39892 33.3116 7.52331 33.1865C4.93225 32.8112 2.64496 33.4725 0.554243 34.9736C0.429157 35.063 0.304071 35.1345 0.178985 35.2238C0.107508 35.1523 0.0538995 35.0987 -0.0175781 35.0272C0.893762 34.1516 1.75149 33.1865 2.73431 32.4002C3.735 31.596 4.87864 30.9884 6.11163 30.1842C4.96799 30.4344 3.98517 30.631 2.82366 30.8812C3.57417 29.7017 4.50338 29.0404 5.62916 28.7903C7.13019 28.4507 8.66696 28.3077 10.1859 28.0933C11.5975 27.8967 13.0271 27.8252 14.4209 27.5393C17.2621 26.9495 19.2457 25.2518 20.4429 22.6069C20.6037 22.3209 20.7467 22.035 20.8718 21.7312Z" fill="#FEAC39"/>
<path id="Vector_3" d="M20.5856 9.57893C20.4783 9.98996 20.389 10.401 20.2639 10.9193C21.6577 10.8478 22.4082 10.0972 23.1052 9.06067C23.0873 9.34661 23.1052 9.65041 23.0694 9.93635C22.6227 12.9208 20.389 15.0296 17.0117 15.5836C15.6357 15.8159 14.2419 15.941 12.866 16.1018C10.3107 16.3878 8.18419 17.3886 6.87972 19.7297C6.84398 19.8012 6.75464 19.819 6.52233 19.9977C6.52233 19.1399 6.39725 18.4072 6.5402 17.7281C7.29072 14.1182 11.49 10.7048 15.1711 10.6333C15.9038 10.6154 16.6543 10.6512 17.4048 10.6869C18.5842 10.7405 19.71 10.5976 20.5856 9.57893Z" fill="#FEAC39"/>
<path id="Vector_4" d="M40.3492 7.70246C40.5457 8.14923 40.7244 8.61388 40.921 9.06065C38.2942 7.57736 35.5602 6.59445 32.433 7.02336C32.4509 6.77316 32.4688 6.61232 32.4866 6.45149C32.5045 6.30852 32.5224 6.16555 32.5581 5.87961C31.4323 6.79103 30.3066 7.38078 28.9127 6.95187C30.0921 3.86019 29.4488 2.09096 27.376 0.214501C27.3938 0.143017 27.4296 0.0536618 27.4475 -0.0178223C28.4481 0.303856 29.5203 0.518308 30.4495 1.00083C31.4323 1.51909 32.3615 2.21605 33.1478 3.00238C33.9162 3.75296 34.4701 4.718 35.0956 5.57581C35.6674 4.12825 35.2207 3.02025 33.4337 1.39399C37.2756 2.21605 41.0461 4.91458 43.6014 10.1687C42.565 9.31085 41.5464 8.45304 40.51 7.57736C40.4385 7.63097 40.4028 7.66671 40.3492 7.70246Z" fill="#FEAC39"/>
<path id="Vector_5" d="M20.818 37.5292C20.264 38.4764 19.7279 39.4235 19.1561 40.3886C21.5327 40.6209 24.6956 38.6014 27.7156 34.8843C27.6619 35.2417 27.6441 35.4562 27.5905 35.6527C26.9114 38.0296 25.607 40.0133 23.7485 41.6217C22.4083 42.7833 20.818 43.2837 19.0846 43.3909C14.796 43.6768 9.07775 41.4608 6.16504 38.244C8.7561 39.2984 11.1327 40.192 13.7417 40.2277C16.4757 40.2635 18.763 39.2091 20.818 37.5292Z" fill="#FEAC39"/>
<path id="Vector_6" d="M35.1314 32.4359C37.4366 36.5284 35.6139 42.8547 31.5218 45.0171C31.8077 44.0699 32.0579 43.2121 32.3259 42.3365C30.6998 43.1228 29.163 43.9627 27.5548 44.5882C25.9287 45.2137 24.2311 45.6247 22.5156 46C26.0895 43.641 29.038 40.7102 31.4325 37.1896C31.2716 38.101 31.1108 39.0303 30.9321 39.9775C33.2909 38.0295 34.4881 35.8671 35.1314 32.4359Z" fill="#FEAC39"/>
<path id="Vector_7" d="M2.18066 26.3419C4.46795 22.4817 14.2783 18.4786 18.2631 19.5151C16.2618 20.9091 14.1174 22.3566 11.9374 23.8578C12.9917 24.4297 14.1353 25.0552 15.2611 25.6628C10.9009 25.3947 6.57654 25.4305 2.18066 26.3419Z" fill="#FEAC39"/>
<path id="Vector_8" d="M17.1374 3.12746C20.0501 0.768483 24.571 1.21526 27.2872 4.03888C28.1985 4.96817 28.2521 5.09327 28.1092 5.91534C25.393 4.55714 24.2136 4.43204 22.4982 5.39708C23.1236 5.6294 23.6597 5.84385 24.1422 6.02256C22.8734 6.41572 21.569 6.66592 20.4075 7.21992C18.4061 8.16708 16.1367 7.16631 15.6006 4.8252C17.3697 5.21837 19.0673 5.20049 20.9078 4.2712C19.5319 3.8423 18.3882 3.50275 17.1374 3.12746Z" fill="#FEAC39"/>
<path id="Vector_9" d="M39.0811 37.2076C41.011 35.5992 41.011 35.5992 40.457 34.9201C40.7965 34.652 41.136 34.3839 41.5649 34.0623C40.1354 32.9721 39.4384 31.6318 40.0281 29.6302C41.8151 32.3466 44.4061 32.2394 47.158 32.0786C47.2295 33.544 46.7292 34.8307 45.657 35.8494C43.7628 37.6543 41.4219 37.4935 39.0811 37.2076Z" fill="#FEAC39"/>
<path id="Vector_10" d="M29.9674 9.59675C27.9303 8.75681 27.1619 8.91765 25.9111 10.4367C26.4293 10.3831 26.8224 10.3473 27.3585 10.2937C25.9468 11.8664 25.643 13.5462 26.4293 15.4227C25.5358 15.1368 24.7674 14.2611 24.41 13.1173C23.9454 11.5447 24.1777 10.0435 25.1069 8.7032C26.2685 7.00545 27.9303 6.96971 29.2348 8.52449C29.485 8.79256 29.6458 9.11423 29.9674 9.59675Z" fill="#FEAC39"/>
<path id="Vector_11" d="M50.6962 24.9658C50.2674 25.6092 49.8921 26.1632 49.5169 26.7172C49.4454 26.6815 49.3739 26.6457 49.3024 26.6278C49.3024 26.056 49.3024 25.4841 49.3024 24.9658C48.0337 25.0373 46.8186 25.1088 45.5677 25.1803C45.4069 25.6628 45.2103 26.2347 44.9959 26.8602C44.3169 26.5206 43.9952 25.9487 44.156 25.3411C44.2454 25.0016 44.7457 24.662 45.1389 24.5191C46.9794 23.8221 48.7842 23.9472 50.6962 24.9658Z" fill="#FEAC39"/>
<path id="Vector_12" d="M51.7324 19.0327C52.2506 21.0879 52.1613 22.8214 50.553 24.3225C50.1956 24.1081 49.8025 23.84 49.5166 23.6613C49.8025 22.6069 49.9812 21.624 50.3743 20.7126C50.6066 20.1586 51.1785 19.6939 51.7324 19.0327Z" fill="#FEAC39"/>
<path id="Vector_13" d="M42.923 29.5051C43.2447 30.0055 43.5127 30.4344 43.7629 30.8276C44.3347 30.8633 44.9065 30.8097 45.4069 30.9527C46.1752 31.1671 46.7649 31.042 47.1938 30.1842C47.3904 31.4531 47.1581 31.739 46.1395 31.6854C45.4069 31.6496 44.6563 31.596 43.9237 31.5782C42.6192 31.5067 42.2618 30.8812 42.923 29.5051Z" fill="#FEAC39"/>
<path id="Vector_14" d="M42.0474 25.2339C41.4935 26.3061 40.9038 27.4499 40.3677 28.5043C39.7601 27.5035 40.6179 25.7343 42.0474 25.2339Z" fill="#FEAC39"/>
<path id="Vector_15" d="M46.5498 28.9332C47.0144 28.2719 47.4254 27.7179 47.8185 27.1639C47.9436 28.0039 47.6577 28.4507 46.5498 28.9332Z" fill="#FEAC39"/>
</g>
</g>
<defs>
<clipPath id="clip0_958_1418">
<rect width="52" height="46" fill="white"/>
</clipPath>
</defs>
</svg>
